<svg xmlns="http://www.w3.org/2000/svg" width="640" height="520" viewBox="0 0 240 240">
<defs><radialGradient id="bg" cx="50%" cy="45%" r="75%"><stop offset="0%" stop-color="#0b3a52"/><stop offset="55%" stop-color="#071827"/><stop offset="100%" stop-color="#020617"/></radialGradient><filter id="glow"><feGaussianBlur stdDeviation="3" result="b"/><feMerge><feMergeNode in="b"/><feMergeNode in="SourceGraphic"/></feMerge></filter></defs>
<rect width="240" height="240" fill="url(#bg)"/>
<g stroke="#22d3ee" stroke-width=".7" opacity=".16"><circle cx="120" cy="120" r="80"/><path d="M120 30V210M30 120H210"/></g>
<g fill="none" stroke="#67e8f9" stroke-width="4" stroke-linecap="round" stroke-linejoin="round" filter="url(#glow)">
<path d="M68 158H164C186 158 200 146 200 128C200 111 187 100 169 99C162 74 143 60 119 60C94 60 76 75 70 98C52 100 40 112 40 128C40 146 53 158 68 158Z"/>
<path d="M88 128H152M104 108H136" stroke="#a855f7"/>
</g>
<text x="120" y="218" text-anchor="middle" font-family="Arial" font-size="13" font-weight="800" letter-spacing="3" fill="#22d3ee">CLOUD</text>
</svg>